<svg width="986" height="557" viewBox="0 0 986 557" fill="none" xmlns="http://www.w3.org/2000/svg">
<g clip-path="url(#clip0_301_351)">
<g filter="url(#filter0_bd_301_351)">
<g clip-path="url(#clip1_301_351)">
<path d="M0 33.82C0 15.1417 15.1417 0 33.82 0H986V557H33.82C15.1417 557 0 541.858 0 523.18V33.82Z" fill="url(#paint0_linear_301_351)"/>
<ellipse cx="237.569" cy="211.783" rx="237.569" ry="211.783" transform="matrix(1 0 0 -1 846.834 730.46)" fill="url(#paint1_radial_301_351)" fill-opacity="0.7"/>
<ellipse cx="237.569" cy="211.783" rx="237.569" ry="211.783" transform="matrix(1 0 0 -1 -38.8613 263.777)" fill="url(#paint2_radial_301_351)"/>
<path d="M519.016 105.602H466.405C460.595 105.602 455.91 100.917 455.91 95.1067C455.91 89.2961 460.595 84.6116 466.405 84.6116H519.016C524.826 84.6116 529.511 89.2961 529.511 95.1067C529.511 100.917 524.826 105.602 519.016 105.602Z" fill="#00FEBE"/>
<path d="M773.642 175.914H702.564C694.726 175.914 688.375 169.563 688.375 161.725C688.375 153.888 694.726 147.537 702.564 147.537H773.642C781.479 147.537 787.83 153.888 787.83 161.725C787.83 169.563 781.479 175.914 773.642 175.914Z" fill="#00FEBE"/>
<path d="M599.371 373.249H554.643C548.923 373.249 544.283 368.609 544.283 362.889C544.283 357.168 548.923 352.529 554.643 352.529H599.371C605.092 352.529 609.731 357.168 609.731 362.889C609.731 368.609 605.092 373.249 599.371 373.249Z" fill="white"/>
<path d="M309.792 322.89H343.935C351.772 322.89 358.123 329.241 358.123 337.078C358.123 344.916 351.772 351.267 343.935 351.267H309.792C301.955 351.267 295.604 344.916 295.604 337.078C295.604 329.241 301.955 322.89 309.792 322.89Z" fill="white"/>
<path d="M329.066 310.773H362.218C367.308 310.773 371.452 314.917 371.452 320.007C371.452 325.097 367.308 329.241 362.218 329.241H329.066C323.976 329.241 319.832 325.097 319.832 320.007C319.832 314.917 323.976 310.773 329.066 310.773Z" fill="white"/>
<path d="M314.345 346.312L263.266 375.771L314.345 405.229L365.379 375.771L314.345 346.312Z" fill="#00FEBE"/>
<path d="M314.344 405.229V464.146L365.378 434.687V375.771L314.344 405.229Z" fill="#00FEBE"/>
<path d="M314.345 405.229V464.146L263.266 434.687V375.771L314.345 405.229Z" fill="#00FEBE"/>
<path d="M374.791 405.229V370.321" stroke="#21B263" stroke-width="2.90002" stroke-miterlimit="10" stroke-linecap="round" stroke-linejoin="round"/>
<path d="M253.852 370.321V440.093L314.345 475.001L349.568 454.642" stroke="#21B263" stroke-width="2.90002" stroke-miterlimit="10" stroke-linecap="round" stroke-linejoin="round"/>
<path d="M314.345 405.229L374.793 370.32L314.345 335.322L253.852 370.32L314.345 405.229Z" stroke="#21B263" stroke-width="2.90002" stroke-miterlimit="10" stroke-linecap="round" stroke-linejoin="round"/>
<path d="M314.344 405.229V475.001" stroke="#21B263" stroke-width="2.90002" stroke-miterlimit="10" stroke-linecap="round" stroke-linejoin="round"/>
<path d="M495.774 241.497L444.695 270.955L495.774 300.413L546.808 270.955L495.774 241.497Z" fill="#00FEBE"/>
<path d="M495.773 300.413V359.33L546.807 329.872V270.955L495.773 300.413Z" fill="#00FEBE"/>
<path d="M495.774 300.413V359.33L444.695 329.872V270.955L495.774 300.413Z" fill="#00FEBE"/>
<path d="M451.004 344.376L495.777 370.185" stroke="#21B263" stroke-width="2.90002" stroke-miterlimit="10" stroke-linecap="round" stroke-linejoin="round"/>
<path d="M556.222 265.505L495.774 230.641L435.281 265.505V314.872" stroke="#21B263" stroke-width="2.90002" stroke-miterlimit="10" stroke-linecap="round" stroke-linejoin="round"/>
<path d="M539.24 345.096L495.773 370.185V300.413" stroke="#21B263" stroke-width="2.90002" stroke-miterlimit="10" stroke-linecap="round" stroke-linejoin="round"/>
<path d="M495.773 300.413L556.221 265.505V314.872" stroke="#21B263" stroke-width="2.90002" stroke-miterlimit="10" stroke-linecap="round" stroke-linejoin="round"/>
<path d="M495.774 300.413L435.281 265.505" stroke="#21B263" stroke-width="2.90002" stroke-miterlimit="10" stroke-linecap="round" stroke-linejoin="round"/>
<path d="M314.345 136.681L263.266 166.139L314.345 195.598L365.379 166.139L314.345 136.681Z" fill="white"/>
<path d="M314.344 195.597V254.514L365.378 225.056V166.139L314.344 195.597Z" fill="white"/>
<path d="M314.345 195.597V254.514L263.266 225.056V166.139L314.345 195.597Z" fill="white"/>
<path d="M374.793 160.734L314.345 125.826L253.852 160.734" stroke="#21B263" stroke-width="2.90002" stroke-miterlimit="10" stroke-linecap="round" stroke-linejoin="round"/>
<path d="M314.344 195.598L374.792 160.734V195.598" stroke="#21B263" stroke-width="2.90002" stroke-miterlimit="10" stroke-linecap="round" stroke-linejoin="round"/>
<path d="M314.344 195.598V265.415" stroke="#21B263" stroke-width="2.90002" stroke-miterlimit="10" stroke-linecap="round" stroke-linejoin="round"/>
<path d="M314.345 195.598L253.852 160.734" stroke="#21B263" stroke-width="2.90002" stroke-miterlimit="10" stroke-linecap="round" stroke-linejoin="round"/>
<path d="M253.852 210.327V160.734" stroke="#21B263" stroke-width="2.90002" stroke-miterlimit="10" stroke-linecap="round" stroke-linejoin="round"/>
<path d="M314.349 265.414L269.441 239.514" stroke="#21B263" stroke-width="2.90002" stroke-miterlimit="10" stroke-linecap="round" stroke-linejoin="round"/>
<path d="M677.206 346.312L626.127 375.771L677.206 405.229L728.24 375.771L677.206 346.312Z" fill="#00FEBE"/>
<path d="M677.205 405.229V464.146L728.239 434.687V375.771L677.205 405.229Z" fill="#00FEBE"/>
<path d="M677.206 405.229V464.146L626.127 434.687V375.771L677.206 405.229Z" fill="#00FEBE"/>
<path d="M646.941 457.524L677.21 475.001" stroke="#21B263" stroke-width="2.90002" stroke-miterlimit="10" stroke-linecap="round" stroke-linejoin="round"/>
<path d="M737.654 370.32L677.206 335.412L616.713 370.32V405.229" stroke="#21B263" stroke-width="2.90002" stroke-miterlimit="10" stroke-linecap="round" stroke-linejoin="round"/>
<path d="M677.205 405.229L737.653 370.32V440.092L677.205 475.001V405.229Z" stroke="#21B263" stroke-width="2.90002" stroke-miterlimit="10" stroke-linecap="round" stroke-linejoin="round"/>
<path d="M677.206 405.229L616.713 370.32" stroke="#21B263" stroke-width="2.90002" stroke-miterlimit="10" stroke-linecap="round" stroke-linejoin="round"/>
<path d="M677.206 136.681L626.127 166.139L677.206 195.598L728.24 166.139L677.206 136.681Z" fill="white"/>
<path d="M677.205 195.597V254.514L728.239 225.056V166.139L677.205 195.597Z" fill="white"/>
<path d="M677.206 195.597V254.514L626.127 225.056V166.139L677.206 195.597Z" fill="white"/>
<path d="M737.654 160.734L677.206 125.826L616.713 160.734" stroke="#21B263" stroke-width="2.90002" stroke-miterlimit="10" stroke-linecap="round" stroke-linejoin="round"/>
<path d="M737.652 210.327V160.734" stroke="#21B263" stroke-width="2.90002" stroke-miterlimit="10" stroke-linecap="round" stroke-linejoin="round"/>
<path d="M677.205 265.414L722.068 239.514" stroke="#21B263" stroke-width="2.90002" stroke-miterlimit="10" stroke-linecap="round" stroke-linejoin="round"/>
<path d="M737.653 160.734L677.205 195.598" stroke="#21B263" stroke-width="2.90002" stroke-miterlimit="10" stroke-linecap="round" stroke-linejoin="round"/>
<path d="M677.205 195.598V265.415" stroke="#21B263" stroke-width="2.90002" stroke-miterlimit="10" stroke-linecap="round" stroke-linejoin="round"/>
<path d="M677.206 195.598L616.713 160.734V206.453" stroke="#21B263" stroke-width="2.90002" stroke-miterlimit="10" stroke-linecap="round" stroke-linejoin="round"/>
<path d="M651.899 210.327L567.623 258.974" stroke="#21B263" stroke-width="2.90002" stroke-miterlimit="10" stroke-linecap="round" stroke-linejoin="round"/>
<circle cx="470.24" cy="315.142" r="1.07" fill="#21B263"/>
<path d="M463.749 318.881L389.518 361.672" stroke="#21B263" stroke-width="2.90002" stroke-linecap="round" stroke-linejoin="round"/>
<circle cx="386.32" cy="363.564" r="1.07" fill="#21B263"/>
<path d="M338.844 210.327L424.336 259.649" stroke="#21B263" stroke-width="2.90002" stroke-miterlimit="10" stroke-linecap="round" stroke-linejoin="round"/>
<path d="M520.504 315.142L604.419 363.564" stroke="#21B263" stroke-width="2.90002" stroke-miterlimit="10" stroke-linecap="round" stroke-linejoin="round"/>
<path d="M539.242 468.965C565.773 464.101 591.672 454.686 615.771 440.813L650.003 421.084" stroke="#21B263" stroke-width="2.90002" stroke-miterlimit="10" stroke-linecap="round" stroke-linejoin="round"/>
<path d="M341.545 421.084L375.778 440.813C402.128 456.038 430.64 465.812 459.828 470.226" stroke="#21B263" stroke-width="2.90002" stroke-miterlimit="10" stroke-linecap="round" stroke-linejoin="round"/>
<path d="M460.005 130.15C437.438 133.799 415.412 140.915 394.962 151.5L391.539 153.302" stroke="#21B263" stroke-width="2.90002" stroke-miterlimit="10" stroke-linecap="round" stroke-linejoin="round"/>
<path d="M600.002 153.257L596.579 151.455C576.219 140.915 554.283 133.799 531.852 130.15" stroke="#21B263" stroke-width="2.90002" stroke-miterlimit="10" stroke-linecap="round" stroke-linejoin="round"/>
<path d="M491.94 90.422H408.25C399.016 90.422 391.539 82.9449 391.539 73.711C391.539 64.4772 399.016 57 408.25 57H491.94C501.174 57 508.651 64.4772 508.651 73.711C508.651 82.9449 501.174 90.422 491.94 90.422Z" fill="#00FEBE"/>
<path d="M194.299 206.453H149.571C144.661 206.453 140.652 202.444 140.652 197.534C140.652 192.625 144.661 188.616 149.571 188.616H194.299C199.208 188.616 203.217 192.625 203.217 197.534C203.217 202.444 199.208 206.453 194.299 206.453Z" fill="white"/>
<path d="M209.889 224.29H165.161C160.251 224.29 156.242 220.281 156.242 215.372C156.242 210.462 160.251 206.453 165.161 206.453H209.889C214.798 206.453 218.807 210.462 218.807 215.372C218.807 220.281 214.798 224.29 209.889 224.29Z" fill="white"/>
<path d="M171.646 215.371H126.919C122.009 215.371 118 211.363 118 206.453C118 201.543 122.009 197.534 126.919 197.534H171.646C176.556 197.534 180.565 201.543 180.565 206.453C180.565 211.363 176.601 215.371 171.646 215.371Z" fill="white"/>
<path d="M495.772 200.102C498.683 200.102 501.042 197.743 501.042 194.832C501.042 191.922 498.683 189.562 495.772 189.562C492.861 189.562 490.502 191.922 490.502 194.832C490.502 197.743 492.861 200.102 495.772 200.102Z" stroke="#003C2E" stroke-width="2.90002" stroke-miterlimit="10" stroke-linecap="round" stroke-linejoin="round"/>
<path d="M677.204 305.683C680.114 305.683 682.474 303.324 682.474 300.413C682.474 297.503 680.114 295.143 677.204 295.143C674.293 295.143 671.934 297.503 671.934 300.413C671.934 303.324 674.293 305.683 677.204 305.683Z" stroke="#003C2E" stroke-width="2.90002" stroke-miterlimit="10" stroke-linecap="round" stroke-linejoin="round"/>
<path d="M314.344 305.683C317.255 305.683 319.614 303.324 319.614 300.413C319.614 297.503 317.255 295.143 314.344 295.143C311.434 295.143 309.074 297.503 309.074 300.413C309.074 303.324 311.434 305.683 314.344 305.683Z" stroke="#003C2E" stroke-width="2.90002" stroke-miterlimit="10" stroke-linecap="round" stroke-linejoin="round"/>
<path d="M494.331 413.517C497.241 413.517 499.601 411.157 499.601 408.247C499.601 405.336 497.241 402.977 494.331 402.977C491.42 402.977 489.061 405.336 489.061 408.247C489.061 411.157 491.42 413.517 494.331 413.517Z" stroke="#003C2E" stroke-width="2.90002" stroke-miterlimit="10" stroke-linecap="round" stroke-linejoin="round"/>
<path d="M763.603 103.394L749.414 111.592" stroke="#21B263" stroke-width="2.90002" stroke-miterlimit="10" stroke-linecap="round" stroke-linejoin="round"/>
<path d="M735.225 103.394L743.558 108.214" stroke="#21B263" stroke-width="2.90002" stroke-miterlimit="10" stroke-linecap="round" stroke-linejoin="round"/>
<path d="M749.414 111.592V128.123" stroke="#21B263" stroke-width="2.90002" stroke-miterlimit="10" stroke-linecap="round" stroke-linejoin="round"/>
<path d="M191.281 399.283L204.434 391.67" stroke="#21B263" stroke-width="2.90002" stroke-miterlimit="10" stroke-linecap="round" stroke-linejoin="round"/>
<path d="M217.636 399.282L209.889 394.778" stroke="#21B263" stroke-width="2.90002" stroke-miterlimit="10" stroke-linecap="round" stroke-linejoin="round"/>
<path d="M204.434 391.67V376.266" stroke="#21B263" stroke-width="2.90002" stroke-miterlimit="10" stroke-linecap="round" stroke-linejoin="round"/>
<path d="M764.818 460.046L774.593 454.416" stroke="#21B263" stroke-width="2.90002" stroke-miterlimit="10" stroke-linecap="round" stroke-linejoin="round"/>
<path d="M784.326 460.046L780.047 457.524" stroke="#21B263" stroke-width="2.90002" stroke-miterlimit="10" stroke-linecap="round" stroke-linejoin="round"/>
<path d="M774.592 454.416V442.975" stroke="#21B263" stroke-width="2.90002" stroke-miterlimit="10" stroke-linecap="round" stroke-linejoin="round"/>
<path d="M201.418 159.383L211.192 153.753" stroke="#21B263" stroke-width="2.90002" stroke-miterlimit="10" stroke-linecap="round" stroke-linejoin="round"/>
<path d="M220.969 159.383L215.203 156.095" stroke="#21B263" stroke-width="2.90002" stroke-miterlimit="10" stroke-linecap="round" stroke-linejoin="round"/>
<path d="M211.191 153.753V142.357" stroke="#21B263" stroke-width="2.90002" stroke-miterlimit="10" stroke-linecap="round" stroke-linejoin="round"/>
<path d="M409.742 76.2786L421.453 83.035" stroke="#21B263" stroke-width="2.90002" stroke-miterlimit="10" stroke-linecap="round" stroke-linejoin="round"/>
<path d="M433.118 76.2787L426.271 80.2425" stroke="#21B263" stroke-width="2.90002" stroke-miterlimit="10" stroke-linecap="round" stroke-linejoin="round"/>
<path d="M421.451 83.0352V96.6832" stroke="#21B263" stroke-width="2.90002" stroke-miterlimit="10" stroke-linecap="round" stroke-linejoin="round"/>
<path d="M156.827 240.596C165.832 240.596 173.133 233.295 173.133 224.29C173.133 215.285 165.832 207.984 156.827 207.984C147.822 207.984 140.521 215.285 140.521 224.29C140.521 233.295 147.822 240.596 156.827 240.596Z" fill="#06C1FB"/>
<path d="M786.263 336.403C781.398 342.934 775.227 348.564 767.93 352.753L747.48 364.645" stroke="#21B263" stroke-width="2.90002" stroke-miterlimit="10" stroke-linecap="round" stroke-linejoin="round"/>
<path d="M702.699 210.327L767.922 248.073C775.579 252.487 782.02 258.433 786.975 265.37" stroke="#21B263" stroke-width="2.90002" stroke-miterlimit="10" stroke-linecap="round" stroke-linejoin="round"/>
<path d="M677.207 265.415L635.768 241.497" stroke="#21B263" stroke-width="2.90002" stroke-miterlimit="10" stroke-linecap="round" stroke-linejoin="round"/>
<path d="M374.791 210.327V160.734" stroke="#21B263" stroke-width="2.90002" stroke-miterlimit="10" stroke-linecap="round" stroke-linejoin="round"/>
<path d="M314.342 265.415L359.205 239.515" stroke="#21B263" stroke-width="2.90002" stroke-miterlimit="10" stroke-linecap="round" stroke-linejoin="round"/>
<path d="M205.068 336.403C209.933 342.934 216.104 348.564 223.401 352.753L243.851 364.645" stroke="#21B263" stroke-width="2.90002" stroke-miterlimit="10" stroke-linecap="round" stroke-linejoin="round"/>
<path d="M288.623 210.327L223.401 248.073C215.744 252.487 209.302 258.433 204.348 265.37" stroke="#21B263" stroke-width="2.90002" stroke-miterlimit="10" stroke-linecap="round" stroke-linejoin="round"/>
<path d="M495.778 104.656L476.139 115.962L495.778 127.268L515.371 115.962L495.778 104.656Z" fill="white"/>
<path d="M495.773 127.267V149.879L515.367 138.573V115.961L495.773 127.267Z" fill="white"/>
<path d="M495.778 127.267V149.879L476.139 138.573V115.961L495.778 127.267Z" fill="white"/>
<path d="M495.775 157.221L521.72 142.222V112.313L495.775 97.3135L469.785 112.313" stroke="#21B263" stroke-width="2.90002" stroke-miterlimit="10" stroke-linecap="round" stroke-linejoin="round"/>
<path d="M521.718 112.313L495.773 127.267" stroke="#21B263" stroke-width="2.90002" stroke-miterlimit="10" stroke-linecap="round" stroke-linejoin="round"/>
<path d="M495.773 127.267V157.221" stroke="#21B263" stroke-width="2.90002" stroke-miterlimit="10" stroke-linecap="round" stroke-linejoin="round"/>
<path d="M495.775 127.267L469.785 112.313" stroke="#21B263" stroke-width="2.90002" stroke-miterlimit="10" stroke-linecap="round" stroke-linejoin="round"/>
<path d="M495.775 157.221L469.785 142.222V112.313" stroke="#21B263" stroke-width="2.90002" stroke-miterlimit="10" stroke-linecap="round" stroke-linejoin="round"/>
<path d="M802.475 277.262L782.836 288.567L802.475 299.873L822.069 288.567L802.475 277.262Z" fill="white"/>
<path d="M802.473 299.873V322.485L822.066 311.179V288.567L802.473 299.873Z" fill="white"/>
<path d="M802.475 299.873V322.485L782.836 311.179V288.567L802.475 299.873Z" fill="white"/>
<path d="M802.474 329.827L828.419 314.872V284.919L802.474 269.919L776.529 284.919" stroke="#21B263" stroke-width="2.90002" stroke-miterlimit="10" stroke-linecap="round" stroke-linejoin="round"/>
<path d="M828.418 284.919L802.473 299.873" stroke="#21B263" stroke-width="2.90002" stroke-miterlimit="10" stroke-linecap="round" stroke-linejoin="round"/>
<path d="M802.473 299.873V329.827" stroke="#21B263" stroke-width="2.90002" stroke-miterlimit="10" stroke-linecap="round" stroke-linejoin="round"/>
<path d="M802.474 299.873L776.529 284.919" stroke="#21B263" stroke-width="2.90002" stroke-miterlimit="10" stroke-linecap="round" stroke-linejoin="round"/>
<path d="M802.474 329.827L776.529 314.873V284.919" stroke="#21B263" stroke-width="2.90002" stroke-miterlimit="10" stroke-linecap="round" stroke-linejoin="round"/>
<path d="M495.778 447.435L476.139 458.74L495.778 470.046L515.371 458.74L495.778 447.435Z" fill="white"/>
<path d="M495.773 470.046V492.703L515.367 481.352V458.74L495.773 470.046Z" fill="white"/>
<path d="M495.778 470.046V492.703L476.139 481.352V458.74L495.778 470.046Z" fill="white"/>
<path d="M495.775 500L521.72 485.045V455.092L495.775 440.092L469.785 455.092" stroke="#21B263" stroke-width="2.90002" stroke-miterlimit="10" stroke-linecap="round" stroke-linejoin="round"/>
<path d="M521.718 455.092L495.773 470.046" stroke="#21B263" stroke-width="2.90002" stroke-miterlimit="10" stroke-linecap="round" stroke-linejoin="round"/>
<path d="M495.773 470.046V500" stroke="#21B263" stroke-width="2.90002" stroke-miterlimit="10" stroke-linecap="round" stroke-linejoin="round"/>
<path d="M495.775 470.046L469.785 455.092" stroke="#21B263" stroke-width="2.90002" stroke-miterlimit="10" stroke-linecap="round" stroke-linejoin="round"/>
<path d="M495.775 500L469.785 485.046V455.092" stroke="#21B263" stroke-width="2.90002" stroke-miterlimit="10" stroke-linecap="round" stroke-linejoin="round"/>
<path d="M189.031 277.261L169.438 288.567L189.031 299.873L208.67 288.567L189.031 277.261Z" fill="white"/>
<path d="M189.029 299.873V322.485L208.668 311.179V288.567L189.029 299.873Z" fill="white"/>
<path d="M189.031 299.873V322.485L169.438 311.179V288.567L189.031 299.873Z" fill="white"/>
<path d="M189.031 329.827L215.021 314.872V284.919L189.031 269.919L163.086 284.919" stroke="#21B263" stroke-width="2.90002" stroke-miterlimit="10" stroke-linecap="round" stroke-linejoin="round"/>
<path d="M215.019 284.919L189.029 299.873" stroke="#21B263" stroke-width="2.90002" stroke-miterlimit="10" stroke-linecap="round" stroke-linejoin="round"/>
<path d="M189.029 299.873V329.827" stroke="#21B263" stroke-width="2.90002" stroke-miterlimit="10" stroke-linecap="round" stroke-linejoin="round"/>
<path d="M189.031 299.873L163.086 284.919" stroke="#21B263" stroke-width="2.90002" stroke-miterlimit="10" stroke-linecap="round" stroke-linejoin="round"/>
<path d="M189.031 329.827L163.086 314.873V284.919" stroke="#21B263" stroke-width="2.90002" stroke-miterlimit="10" stroke-linecap="round" stroke-linejoin="round"/>
</g>
</g>
</g>
<defs>
<filter id="filter0_bd_301_351" x="-55.2073" y="-55.2073" width="1100.39" height="671.388" filterUnits="userSpaceOnUse" color-interpolation-filters="sRGB">
<feFlood flood-opacity="0" result="BackgroundImageFix"/>
<feGaussianBlur in="BackgroundImageFix" stdDeviation="27.6036"/>
<feComposite in2="SourceAlpha" operator="in" result="effect1_backgroundBlur_301_351"/>
<feColorMatrix in="SourceAlpha" type="matrix" values="0 0 0 0 0 0 0 0 0 0 0 0 0 0 0 0 0 0 127 0" result="hardAlpha"/>
<feMorphology radius="8.4544" operator="dilate" in="SourceAlpha" result="effect2_dropShadow_301_351"/>
<feOffset dx="8.4544" dy="8.4544"/>
<feGaussianBlur stdDeviation="21.136"/>
<feComposite in2="hardAlpha" operator="out"/>
<feColorMatrix type="matrix" values="0 0 0 0 0 0 0 0 0 0 0 0 0 0 0 0 0 0 0.1 0"/>
<feBlend mode="normal" in2="effect1_backgroundBlur_301_351" result="effect2_dropShadow_301_351"/>
<feBlend mode="normal" in="SourceGraphic" in2="effect2_dropShadow_301_351" result="shape"/>
</filter>
<linearGradient id="paint0_linear_301_351" x1="3.58008e-05" y1="-27.3881" x2="950.898" y2="803.398" gradientUnits="userSpaceOnUse">
<stop stop-color="#00FEBE"/>
<stop offset="1" stop-color="#06C1FB"/>
</linearGradient>
<radialGradient id="paint1_radial_301_351" cx="0" cy="0" r="1" gradientUnits="userSpaceOnUse" gradientTransform="translate(237.569 211.783) rotate(-90) scale(161.088 180.701)">
<stop stop-color="#21B263" stop-opacity="0.4"/>
<stop offset="1" stop-color="#21B263" stop-opacity="0"/>
</radialGradient>
<radialGradient id="paint2_radial_301_351" cx="0" cy="0" r="1" gradientUnits="userSpaceOnUse" gradientTransform="translate(237.569 211.783) rotate(-90) scale(161.088 180.701)">
<stop stop-color="white" stop-opacity="0.4"/>
<stop offset="1" stop-color="white" stop-opacity="0"/>
</radialGradient>
<clipPath id="clip0_301_351">
<rect width="986" height="557" fill="white"/>
</clipPath>
<clipPath id="clip1_301_351">
<path d="M0 33.82C0 15.1417 15.1417 0 33.82 0H986V557H33.82C15.1417 557 0 541.858 0 523.18V33.82Z" fill="white"/>
</clipPath>
</defs>
</svg>
