<svg width="133" height="115" viewBox="0 0 133 115" fill="none" xmlns="http://www.w3.org/2000/svg">
<path d="M43.9815 63.0497L31.2207 48.7876" stroke="white" stroke-width="3.00254"/>
<path d="M102.531 48.7876L89.77 63.0497" stroke="white" stroke-width="3.00254"/>
<path d="M31.9707 42.7823L43.9809 30.0215" stroke="white" stroke-width="3.00254"/>
<path d="M89.7699 30.022L101.029 42.0322" stroke="white" stroke-width="3.00254"/>
<path d="M69.5024 9.00391L84.5151 24.7673" stroke="white" stroke-width="3.00254"/>
<path d="M64.9987 9.00391L49.2354 24.7673" stroke="white" stroke-width="3.00254"/>
<circle cx="66.4999" cy="6.00137" r="4.50381" stroke="white" stroke-width="3.00254"/>
<path d="M69.5024 46.5361L85.2658 30.0222" stroke="white" stroke-width="3.00254"/>
<path d="M64.2482 46.5361L48.4849 30.7728" stroke="white" stroke-width="3.00254"/>
<circle cx="87.518" cy="27.0194" r="4.50381" stroke="white" stroke-width="3.00254"/>
<circle cx="46.9838" cy="27.0194" r="4.50381" stroke="white" stroke-width="3.00254"/>
<circle cx="28.9682" cy="45.0346" r="4.50381" stroke="white" stroke-width="3.00254"/>
<circle cx="104.032" cy="45.0346" r="4.50381" stroke="white" stroke-width="3.00254"/>
<circle cx="66.4999" cy="49.5385" r="4.50381" stroke="white" stroke-width="3.00254"/>
<circle cx="87.518" cy="66.0522" r="4.50381" stroke="white" stroke-width="3.00254"/>
<circle cx="46.9838" cy="66.0522" r="3.00254" stroke="white" stroke-width="3.00254"/>
<path d="M0 114.502V92.1284H7.43645C9.16303 92.1284 10.5744 92.4452 11.6705 93.0789C12.7738 93.7052 13.5905 94.5537 14.1207 95.6243C14.6508 96.695 14.9159 97.8894 14.9159 99.2076C14.9159 100.526 14.6508 101.724 14.1207 102.802C13.5977 103.88 12.7881 104.739 11.692 105.38C10.5959 106.014 9.19168 106.331 7.47944 106.331H2.14926V103.927H7.39347C8.57556 103.927 9.52482 103.72 10.2412 103.304C10.9577 102.889 11.4771 102.328 11.7995 101.622C12.129 100.908 12.2938 100.103 12.2938 99.2076C12.2938 98.3118 12.129 97.5107 11.7995 96.8042C11.4771 96.0977 10.9541 95.5442 10.2305 95.1436C9.50691 94.7358 8.5469 94.5319 7.35048 94.5319H2.66509V114.502H0Z" fill="white"/>
<path d="M31.0747 114.502V92.1284H38.6918C40.453 92.1284 41.8987 92.427 43.0288 93.0242C44.1589 93.6142 44.9954 94.4263 45.5384 95.4605C46.0815 96.4947 46.353 97.6709 46.353 98.9891C46.353 100.307 46.0815 101.476 45.5384 102.496C44.9954 103.516 44.1625 104.317 43.0398 104.899C41.917 105.475 40.4824 105.762 38.7359 105.762H32.5717V103.315H38.6478C39.8513 103.315 40.8199 103.141 41.5538 102.791C42.2949 102.441 42.8306 101.946 43.1608 101.305C43.4984 100.657 43.6672 99.885 43.6672 98.9891C43.6672 98.0933 43.4984 97.3104 43.1608 96.6403C42.8233 95.9703 42.2839 95.4532 41.5428 95.089C40.8016 94.7176 39.8219 94.5319 38.6038 94.5319H33.8045V114.502H31.0747ZM41.6859 104.452L47.2336 114.502H44.0635L38.6038 104.452H41.6859Z" fill="white"/>
<path d="M67.1216 92.1284V114.502H63.3926V92.1284H67.1216Z" fill="white"/>
<path d="M83.2803 92.1284H86.3952L93.7194 108.214H93.972L101.296 92.1284H104.411V114.502H101.97V97.5034H101.759L95.0243 112.016H92.6671L85.9322 97.5034H85.7217V114.502H83.2803V92.1284Z" fill="white"/>
<path d="M120.57 114.502V92.1284H132.841V94.5319H123.032V102.092H132.205V104.495H123.032V112.099H133V114.502H120.57Z" fill="white"/>
<path d="M57.5261 78.8686C57.4609 78.3395 57.1965 77.9288 56.7329 77.6365C56.2692 77.3441 55.7006 77.1979 55.0269 77.1979C54.5343 77.1979 54.1032 77.2745 53.7338 77.4276C53.368 77.5808 53.0818 77.7914 52.8754 78.0594C52.6725 78.3274 52.5711 78.6319 52.5711 78.973C52.5711 79.2584 52.6417 79.5038 52.783 79.7092C52.9279 79.911 53.1126 80.0798 53.3372 80.2156C53.5617 80.3479 53.7972 80.4575 54.0435 80.5445C54.2898 80.628 54.5162 80.6959 54.7226 80.7481L55.8527 81.0405C56.1425 81.1136 56.4648 81.2145 56.8198 81.3433C57.1784 81.4721 57.5207 81.6479 57.8467 81.8706C58.1763 82.0899 58.4479 82.3718 58.6616 82.7164C58.8753 83.061 58.9822 83.4839 58.9822 83.9851C58.9822 84.5629 58.8246 85.0849 58.5095 85.5513C58.198 86.0177 57.7416 86.3884 57.1404 86.6634C56.5427 86.9384 55.8165 87.0758 54.9617 87.0758C54.1648 87.0758 53.4748 86.9523 52.8917 86.7052C52.3121 86.458 51.8557 86.1135 51.5225 85.6714C51.1929 85.2294 51.0064 84.716 50.9629 84.1313H52.3538C52.39 84.535 52.5313 84.8691 52.7776 85.1337C53.0275 85.3947 53.3426 85.5896 53.7229 85.7184C54.1069 85.8437 54.5198 85.9064 54.9617 85.9064C55.476 85.9064 55.9378 85.8263 56.3471 85.6662C56.7564 85.5026 57.0806 85.2764 57.3196 84.9875C57.5587 84.6951 57.6782 84.354 57.6782 83.9642C57.6782 83.6092 57.575 83.3203 57.3685 83.0975C57.1621 82.8748 56.8904 82.6938 56.5536 82.5546C56.2167 82.4153 55.8527 82.2935 55.4615 82.1891L54.0924 81.8132C53.2231 81.573 52.5349 81.2302 52.0278 80.7847C51.5207 80.3392 51.2671 79.7562 51.2671 79.0357C51.2671 78.437 51.4356 77.9149 51.7724 77.4694C52.1129 77.0204 52.5693 76.6723 53.1416 76.4252C53.7175 76.1746 54.3604 76.0493 55.0703 76.0493C55.7875 76.0493 56.425 76.1729 56.9828 76.42C57.5406 76.6636 57.9825 76.9978 58.3085 77.4224C58.6381 77.847 58.8119 78.3291 58.8301 78.8686H57.5261Z" fill="white"/>
<path d="M61.9893 87.0758V76.0493H66.0214C66.8249 76.0493 67.4875 76.1821 68.0094 76.4477C68.5312 76.7098 68.9198 77.0633 69.1751 77.5084C69.4304 77.9499 69.558 78.4398 69.558 78.9782C69.558 79.452 69.4698 79.8433 69.2933 80.152C69.1206 80.4606 68.8916 80.7047 68.6063 80.8842C68.3247 81.0637 68.0187 81.1965 67.6884 81.2826V81.3903C68.0413 81.4118 68.3961 81.5303 68.7527 81.7456C69.1094 81.961 69.4079 82.2697 69.6481 82.6717C69.8884 83.0737 70.0086 83.5654 70.0086 84.1469C70.0086 84.6997 69.8771 85.1968 69.6143 85.6383C69.3515 86.0798 68.9367 86.4298 68.3698 86.6882C67.8029 86.9466 67.0651 87.0758 66.1566 87.0758H61.9893ZM63.3859 85.8914H66.1566C67.0689 85.8914 67.7165 85.7227 68.0995 85.3853C68.4862 85.0443 68.6795 84.6315 68.6795 84.1469C68.6795 83.7736 68.58 83.4291 68.381 83.1132C68.1821 82.7937 67.8986 82.5389 67.5307 82.3487C67.1628 82.1548 66.7272 82.0579 66.2242 82.0579H63.3859V85.8914ZM63.3859 80.895H65.9764C66.3969 80.895 66.7761 80.816 67.1139 80.6581C67.4556 80.5001 67.7259 80.2776 67.9249 79.9904C68.1276 79.7033 68.229 79.3659 68.229 78.9782C68.229 78.4937 68.0525 78.0827 67.6996 77.7453C67.3467 77.4043 66.7873 77.2338 66.0214 77.2338H63.3859V80.895Z" fill="white"/>
<path d="M74.6069 76.0493L77.4834 80.6365H77.5705L80.447 76.0493H82.0378L78.5294 81.5626L82.0378 87.0758H80.447L77.5705 82.5748H77.4834L74.6069 87.0758H73.0161L76.6117 81.5626L73.0161 76.0493H74.6069Z" fill="white"/>
<line y1="82.495" x2="39.7757" y2="82.495" stroke="white" stroke-width="1.86449"/>
<line x1="93.2236" y1="82.495" x2="132.999" y2="82.495" stroke="white" stroke-width="1.86449"/>
</svg>
