<svg width="57" height="57" viewBox="0 0 57 57" fill="none" xmlns="http://www.w3.org/2000/svg">
<rect width="56.3333" height="56.3333" rx="28.1667" transform="matrix(1 0 0 -1 0.0834961 56.3335)" fill="url(#paint0_linear_175_4806)"/>
<path d="M19.5178 39.242L14.6023 33.4126" stroke="white" stroke-width="1.40896"/>
<path d="M42.0713 33.4126L37.1558 39.242" stroke="white" stroke-width="1.40896"/>
<path d="M14.8914 30.958L19.5177 25.7422" stroke="white" stroke-width="1.40896"/>
<path d="M37.1562 25.7426L41.4934 30.6516" stroke="white" stroke-width="1.40896"/>
<path d="M29.3491 17.1519L35.1321 23.5949" stroke="white" stroke-width="1.40896"/>
<path d="M27.6144 17.1519L21.5422 23.5949" stroke="white" stroke-width="1.40896"/>
<ellipse cx="28.1924" cy="15.9244" rx="1.73489" ry="1.84087" stroke="white" stroke-width="1.40896"/>
<path d="M29.3491 32.4922L35.4212 25.7423" stroke="white" stroke-width="1.40896"/>
<path d="M27.3248 32.4922L21.2527 26.0491" stroke="white" stroke-width="1.40896"/>
<ellipse cx="36.2884" cy="24.5152" rx="1.73489" ry="1.84087" stroke="white" stroke-width="1.40896"/>
<ellipse cx="20.6743" cy="24.5152" rx="1.73489" ry="1.84087" stroke="white" stroke-width="1.40896"/>
<ellipse cx="13.7351" cy="31.8785" rx="1.73489" ry="1.84087" stroke="white" stroke-width="1.40896"/>
<ellipse cx="42.6499" cy="31.8785" rx="1.73489" ry="1.84087" stroke="white" stroke-width="1.40896"/>
<ellipse cx="28.1919" cy="33.7193" rx="1.73489" ry="1.84087" stroke="white" stroke-width="1.40896"/>
<ellipse cx="36.2884" cy="40.4693" rx="1.73489" ry="1.84087" stroke="white" stroke-width="1.40896"/>
<path d="M21.7048 40.4693C21.7048 41.1368 21.2047 41.6057 20.6743 41.6057C20.144 41.6057 19.6439 41.1368 19.6439 40.4693C19.6439 39.8017 20.144 39.3329 20.6743 39.3329C21.2047 39.3329 21.7048 39.8017 21.7048 40.4693Z" stroke="white" stroke-width="1.40896"/>
<defs>
<linearGradient id="paint0_linear_175_4806" x1="-17.6042" y1="-27.3542" x2="108.581" y2="106.264" gradientUnits="userSpaceOnUse">
<stop stop-color="#0473EA"/>
<stop offset="1" stop-color="#38D200"/>
</linearGradient>
</defs>
</svg>
