<svg width="227" height="64" viewBox="0 0 227 64" fill="none" xmlns="http://www.w3.org/2000/svg">
<path d="M18.9075 55.3238L7.85254 42.9683" stroke="#1FB462" stroke-width="2.60116"/>
<path d="M69.6301 42.9683L58.5752 55.3238" stroke="#1FB462" stroke-width="2.60116"/>
<path d="M8.50293 37.7659L18.9076 26.7109" stroke="#1FB462" stroke-width="2.60116"/>
<path d="M58.5754 26.7109L68.3298 37.1156" stroke="#1FB462" stroke-width="2.60116"/>
<path d="M41.0176 8.50293L54.0234 22.159" stroke="#1FB462" stroke-width="2.60116"/>
<path d="M37.116 8.50293L23.46 22.159" stroke="#1FB462" stroke-width="2.60116"/>
<circle cx="38.4164" cy="5.90173" r="3.90173" stroke="#21B263" stroke-width="2.60116"/>
<path d="M41.0176 41.0176L54.6737 26.7112" stroke="#1FB462" stroke-width="2.60116"/>
<path d="M36.4656 41.0176L22.8096 27.3615" stroke="#1FB462" stroke-width="2.60116"/>
<circle cx="56.6244" cy="24.1097" r="3.90173" stroke="#21B263" stroke-width="2.60116"/>
<circle cx="21.5092" cy="24.1097" r="3.90173" stroke="#21B263" stroke-width="2.60116"/>
<circle cx="5.90173" cy="39.7167" r="3.90173" stroke="#21B263" stroke-width="2.60116"/>
<circle cx="70.931" cy="39.7167" r="3.90173" stroke="#21B263" stroke-width="2.60116"/>
<circle cx="38.4164" cy="43.6185" r="3.90173" stroke="#21B263" stroke-width="2.60116"/>
<circle cx="56.6244" cy="57.9247" r="3.90173" stroke="#21B263" stroke-width="2.60116"/>
<circle cx="21.5092" cy="57.9247" r="2.60116" stroke="#21B263" stroke-width="2.60116"/>
<path d="M87.8379 52.7224V29.312H95.6189C97.4254 29.312 98.9022 29.6435 100.049 30.3065C101.203 30.9619 102.058 31.8497 102.613 32.9699C103.167 34.0901 103.445 35.3399 103.445 36.7192C103.445 38.0985 103.167 39.3521 102.613 40.48C102.066 41.6078 101.218 42.507 100.072 43.1776C98.9247 43.8406 97.4554 44.1721 95.6638 44.1721H90.0867V41.6573H95.5739C96.8108 41.6573 97.804 41.4402 98.5536 41.0058C99.3032 40.5714 99.8467 39.9846 100.184 39.2454C100.529 38.4986 100.701 37.6565 100.701 36.7192C100.701 35.7819 100.529 34.9436 100.184 34.2044C99.8467 33.4652 99.2995 32.8861 98.5424 32.4669C97.7853 32.0402 96.7808 31.8268 95.5289 31.8268H90.6265V52.7224H87.8379Z" fill="#21B263"/>
<path d="M120.353 52.7224V29.312H128.323C130.165 29.312 131.678 29.6245 132.86 30.2493C134.043 30.8666 134.918 31.7163 135.486 32.7984C136.055 33.8805 136.339 35.1113 136.339 36.4906C136.339 37.8699 136.055 39.093 135.486 40.1599C134.918 41.2268 134.047 42.065 132.872 42.6747C131.697 43.2767 130.196 43.5777 128.369 43.5777H121.919V41.0172H128.276C129.536 41.0172 130.549 40.8343 131.317 40.4685C132.093 40.1027 132.653 39.5845 132.999 38.9139C133.352 38.2357 133.528 37.4279 133.528 36.4906C133.528 35.5533 133.352 34.734 132.999 34.033C132.645 33.3319 132.081 32.7908 131.306 32.4098C130.53 32.0211 129.505 31.8268 128.23 31.8268H123.209V52.7224H120.353ZM131.455 42.206L137.26 52.7224H133.943L128.23 42.206H131.455Z" fill="#21B263"/>
<path d="M158.069 29.312V52.7224H154.167V29.312H158.069Z" fill="#21B263"/>
<path d="M174.977 29.312H178.236L185.899 46.1433H186.164L193.827 29.312H197.086V52.7224H194.532V34.936H194.312L187.265 50.1213H184.798L177.751 34.936H177.531V52.7224H174.977V29.312Z" fill="#21B263"/>
<path d="M213.994 52.7224V29.312H226.834V31.8268H216.57V39.737H226.169V42.2517H216.57V50.2076H227V52.7224H213.994Z" fill="#21B263"/>
<path d="M148.028 15.4382C147.96 14.8846 147.684 14.4549 147.198 14.149C146.713 13.8431 146.118 13.6901 145.413 13.6901C144.898 13.6901 144.447 13.7702 144.06 13.9305C143.678 14.0907 143.378 14.311 143.162 14.5915C142.95 14.8719 142.844 15.1905 142.844 15.5474C142.844 15.8461 142.918 16.1028 143.066 16.3177C143.217 16.5289 143.41 16.7055 143.645 16.8476C143.88 16.986 144.127 17.1007 144.384 17.1917C144.642 17.2791 144.879 17.3502 145.095 17.4048L146.277 17.7107C146.581 17.7872 146.918 17.8928 147.289 18.0275C147.665 18.1623 148.023 18.3462 148.364 18.5793C148.709 18.8087 148.993 19.1037 149.217 19.4642C149.44 19.8248 149.552 20.2673 149.552 20.7917C149.552 21.3963 149.387 21.9425 149.057 22.4305C148.731 22.9185 148.254 23.3064 147.625 23.5941C146.999 23.8818 146.24 24.0257 145.345 24.0257C144.511 24.0257 143.789 23.8964 143.179 23.6378C142.573 23.3792 142.095 23.0187 141.747 22.5562C141.402 22.0937 141.207 21.5565 141.161 20.9447H142.616C142.654 21.3671 142.802 21.7167 143.06 21.9935C143.321 22.2667 143.651 22.4706 144.049 22.6053C144.451 22.7365 144.883 22.802 145.345 22.802C145.883 22.802 146.367 22.7182 146.795 22.5507C147.223 22.3796 147.562 22.1428 147.812 21.8406C148.063 21.5346 148.188 21.1777 148.188 20.7699C148.188 20.3984 148.08 20.0961 147.864 19.863C147.648 19.63 147.363 19.4406 147.011 19.2949C146.658 19.1492 146.277 19.0218 145.868 18.9125L144.436 18.5192C143.526 18.2679 142.806 17.9092 142.275 17.443C141.745 16.9769 141.479 16.3669 141.479 15.613C141.479 14.9866 141.656 14.4403 142.008 13.9742C142.364 13.5044 142.842 13.1402 143.441 12.8816C144.043 12.6194 144.716 12.4883 145.459 12.4883C146.209 12.4883 146.876 12.6176 147.46 12.8761C148.044 13.1311 148.506 13.4807 148.847 13.925C149.192 14.3693 149.374 14.8737 149.393 15.4382H148.028Z" fill="#A1A1A1"/>
<path d="M152.698 24.0257V12.4883H156.917C157.758 12.4883 158.451 12.6272 158.997 12.9052C159.543 13.1793 159.95 13.5493 160.217 14.015C160.484 14.4769 160.618 14.9896 160.618 15.5529C160.618 16.0486 160.525 16.458 160.341 16.781C160.16 17.104 159.92 17.3594 159.622 17.5472C159.327 17.7349 159.007 17.8739 158.661 17.964V18.0767C159.031 18.0992 159.402 18.2232 159.775 18.4485C160.148 18.6739 160.461 18.9968 160.712 19.4175C160.963 19.8381 161.089 20.3526 161.089 20.961C161.089 21.5394 160.952 22.0596 160.677 22.5215C160.402 22.9835 159.968 23.3496 159.374 23.6201C158.781 23.8905 158.009 24.0257 157.059 24.0257H152.698ZM154.16 22.7863H157.059C158.013 22.7863 158.691 22.6098 159.092 22.2568C159.496 21.9 159.698 21.4681 159.698 20.961C159.698 20.5705 159.594 20.2099 159.386 19.8794C159.178 19.5452 158.881 19.2785 158.496 19.0795C158.111 18.8767 157.656 18.7753 157.129 18.7753H154.16V22.7863ZM154.16 17.5584H156.87C157.31 17.5584 157.707 17.4758 158.06 17.3105C158.418 17.1453 158.701 16.9124 158.909 16.612C159.121 16.3115 159.227 15.9585 159.227 15.5529C159.227 15.0459 159.042 14.6159 158.673 14.2628C158.304 13.906 157.719 13.7276 156.917 13.7276H154.16V17.5584Z" fill="#A1A1A1"/>
<path d="M165.901 12.4883L168.911 17.288H169.002L172.012 12.4883H173.676L170.005 18.257L173.676 24.0257H172.012L169.002 19.3161H168.911L165.901 24.0257H164.236L167.999 18.257L164.236 12.4883H165.901Z" fill="#A1A1A1"/>
<line x1="87.8379" y1="19.2326" x2="129.456" y2="19.2326" stroke="#A1A1A1" stroke-width="1.95087"/>
<line x1="185.381" y1="19.2326" x2="226.999" y2="19.2326" stroke="#A1A1A1" stroke-width="1.95087"/>
</svg>
