<svg width="153" height="52" viewBox="0 0 153 52" fill="none" xmlns="http://www.w3.org/2000/svg">
<path d="M6.24358 22.9252C6.24358 18.6132 10.6409 17.0078 14.4178 17.0078C19.8001 17.0078 23.1272 19.7998 23.1272 24.5306V24.8563H27.9743V24.5306C27.9743 17.2172 22.6231 12.6958 14.7746 12.6958C8.09713 12.6958 1.38867 15.9221 1.38867 23.1346C1.38867 37.4512 24.4146 30.3472 24.4146 40.3517C24.4146 45.5246 18.2723 46.9206 15.046 46.9206C9.02779 46.9206 5.04149 43.6943 5.04149 38.2112V37.9863H0.194336V38.312C0.194336 46.6957 6.18154 51.2171 15.015 51.2171C22.1035 51.2171 29.2462 47.7814 29.2462 40.1423C29.2462 25.7172 6.23583 32.2783 6.23583 22.9252H6.24358Z" fill="#CE181E"/>
<path d="M61.7414 23.8947C61.7414 16.0462 56.9098 12.6958 48.5262 12.6958C40.7785 12.6958 34.0002 16.147 34.0002 24.6469V24.9572H38.8474V24.6469C38.8474 19.1561 42.9345 17.0078 47.991 17.0078C54.0093 17.0078 56.809 19.1638 56.809 23.9955C56.809 27.7569 54.9787 28.1912 51.5508 28.6177L49.705 28.8426C41.2205 29.8043 32.5034 30.7737 32.5034 40.4525C32.5034 47.13 37.0093 51.2171 44.5476 51.2171C51.1242 51.2171 55.3122 48.3243 57.1425 44.3303C57.1425 44.3303 57.1425 48.2157 57.6776 50.1468H62.4705C62.0362 49.0611 61.7492 45.4005 61.7492 43.6943V23.8947H61.7414ZM56.809 36.0552C56.809 38.8549 55.8396 41.4375 54.017 43.3686C51.7602 45.6332 48.5339 46.9206 44.8734 46.9206C41.2128 46.9206 37.3351 44.974 37.3351 40.3517C37.3351 34.76 43.3533 33.4649 49.8213 32.7126L53.257 32.2783C54.2264 32.1775 56.049 31.844 56.809 31.2081V36.0552Z" fill="#CE181E"/>
<path d="M88.5289 13.7892L78.6484 44.5938L68.6594 13.7892H63.0522L75.9573 50.1467H81.2388L93.7018 13.7892H93.2752H88.5289Z" fill="#CE181E"/>
<path d="M98.5567 0.814331C96.7419 0.814331 95.1753 2.28011 95.1753 4.09489C95.1753 6.02599 96.7419 7.49177 98.5567 7.49177C100.371 7.49177 101.915 6.05701 101.946 4.15693C101.915 2.25684 100.348 0.822086 98.5567 0.822086V0.814331Z" fill="#CE181E"/>
<path d="M96.0908 13.7892V50.1467H101.14V13.7892H100.814H96.0908Z" fill="#CE181E"/>
<path d="M106.095 0V50.1467H111.144V0H110.818H106.095Z" fill="#CE181E"/>
<path d="M115.999 0V50.1467H121.048V0H120.722H115.999Z" fill="#CE181E"/>
<path d="M129.866 22.9252C129.866 18.6132 134.279 17.0078 138.149 17.0078C143.531 17.0078 146.874 19.7998 146.874 24.5306V24.8563H151.705V24.5306C151.705 17.2172 146.377 12.6958 138.405 12.6958C131.743 12.6958 125.019 15.9221 125.019 23.1346C125.019 37.4512 148.153 30.3472 148.153 40.3517C148.153 45.5246 141.926 46.9206 138.699 46.9206C132.782 46.9206 128.695 43.6943 128.695 38.2112V37.9863H123.848V38.312C123.848 46.6957 129.835 51.2171 138.754 51.2171C145.865 51.2171 153 47.7814 153 40.1423C153 25.7172 129.866 32.2783 129.866 22.9252Z" fill="#CE181E"/>
</svg>
